<svg width="1395" height="1629" viewBox="0 0 1395 1629" fill="none" xmlns="http://www.w3.org/2000/svg">
<path fill-rule="evenodd" clip-rule="evenodd" d="M688.68 306C747.597 306 795.359 353.762 795.359 412.679L795.359 1218.11C795.359 1277.03 747.597 1324.79 688.68 1324.79C629.763 1324.79 582.001 1277.03 582.001 1218.11L582.001 412.679C582.001 353.762 629.763 306 688.68 306Z" fill="url(#paint0_radial_144_49)"/>
<path fill-rule="evenodd" clip-rule="evenodd" d="M1288.18 1629C1229.27 1629 1181.5 1581.24 1181.5 1522.32C1181.5 1318.03 1181.5 1048.13 1181.5 809.17C1181.5 761.087 1173.01 708.44 1155.61 662.722C1138 616.484 1114.18 584.548 1088.51 566.89C1059.68 547.061 1016.98 533.409 959.818 525.975C903.199 518.612 842.843 518.466 782.209 518.468H480.087C421.169 518.468 373.407 470.706 373.407 411.789C373.407 352.871 421.169 305.109 480.087 305.109H784.849C842.814 305.105 915.842 305.101 987.331 314.397C1059.36 323.764 1140.54 343.718 1209.43 391.103C1281.7 440.814 1327.49 514.527 1355 586.814C1382.72 659.621 1394.86 738.376 1394.86 809.169C1394.86 1048.13 1394.86 1318.03 1394.86 1522.32C1394.86 1581.24 1347.1 1629 1288.18 1629Z" fill="url(#paint1_linear_144_49)"/>
<path fill-rule="evenodd" clip-rule="evenodd" d="M106.681 0.000488282C165.598 0.000756869 213.36 47.763 213.36 106.68C213.359 310.971 213.358 580.87 213.36 819.831C213.36 867.913 221.854 920.56 239.258 966.278C256.86 1012.52 280.68 1044.45 306.351 1062.11C335.179 1081.94 377.879 1095.59 435.045 1103.03C491.664 1110.39 552.02 1110.53 612.654 1110.53H914.777C973.694 1110.53 1021.46 1158.29 1021.46 1217.21C1021.46 1276.13 973.694 1323.89 914.777 1323.89H610.014C552.05 1323.9 479.021 1323.9 407.532 1314.6C335.498 1305.24 254.323 1285.28 185.435 1237.9C113.164 1188.19 67.3778 1114.47 39.8593 1042.19C12.1426 969.379 0.00118222 890.625 0.000815965 819.832C-0.000421162 580.87 -0.00011188 310.971 0.000815965 106.679C0.00108455 47.762 47.7633 0.000219696 106.681 0.000488282Z" fill="url(#paint2_linear_144_49)"/>
<defs>
<radialGradient id="paint0_radial_144_49" cx="0" cy="0" r="1" gradientUnits="userSpaceOnUse" gradientTransform="translate(688.679 815.395) rotate(-90.0137) scale(1696.88 8102.6)">
<stop offset="0.0360115" stop-color="#9988FF"/>
<stop offset="1" stop-color="#232226"/>
</radialGradient>
<linearGradient id="paint1_linear_144_49" x1="1075.22" y1="1627.34" x2="-2368.34" y2="1714.52" gradientUnits="userSpaceOnUse">
<stop stop-color="#EA80FF"/>
<stop offset="1" stop-color="#232226"/>
</linearGradient>
<linearGradient id="paint2_linear_144_49" x1="254.272" y1="1569.22" x2="3625.19" y2="1656.4" gradientUnits="userSpaceOnUse">
<stop stop-color="#EA80FF"/>
<stop offset="1" stop-color="#232226"/>
</linearGradient>
</defs>
</svg>
